HIERARCHY
ROOT Hips
{
	OFFSET -3.958830 18.904000 13.208200
	CHANNELS 6 Xposition Yposition Zposition Zrotation Yrotation Xrotation 
	JOINT LHipJoint
	{
		OFFSET 0.000000 0.000000 0.000000
		CHANNELS 3 Zrotation Yrotation Xrotation
		JOINT LeftUpLeg
		{
			OFFSET 1.800000 -1.400000 0.085000
			CHANNELS 3 Zrotation Yrotation Xrotation
			JOINT LeftLeg
			{
				OFFSET 2.215000 -6.000000 0.000000
				CHANNELS 3 Zrotation Yrotation Xrotation
				JOINT LeftFoot
				{
					OFFSET 2.500000 -6.900000 0.000000
					CHANNELS 3 Zrotation Yrotation Xrotation
					JOINT LeftToeBase
					{
						OFFSET 0.200000 -0.500000 1.950000
						CHANNELS 3 Zrotation Yrotation Xrotation
						End Site
						{
							OFFSET 0.000000 0.000000 0.000000
						}
					}
				}
			}
		}
	}
	JOINT RHipJoint
	{
		OFFSET 0.000000 0.000000 0.000000
		CHANNELS 3 Zrotation Yrotation Xrotation
		JOINT RightUpLeg
		{
			OFFSET -1.800000 -1.400000 0.085000
			CHANNELS 3 Zrotation Yrotation Xrotation
			JOINT RightLeg
			{
				OFFSET -2.215000 -6.000000 0.000000
				CHANNELS 3 Zrotation Yrotation Xrotation
				JOINT RightFoot
				{
					OFFSET -2.500000 -6.900000 0.000000
					CHANNELS 3 Zrotation Yrotation Xrotation
					JOINT RightToeBase
					{
						OFFSET -0.200000 -0.500000 1.950000
						CHANNELS 3 Zrotation Yrotation Xrotation
						End Site
						{
							OFFSET 0.000000 0.000000 0.000000
						}
					}
				}
			}
		}
	}
	JOINT LowerBack
	{
		OFFSET 0.000000 0.000000 0.000000
		CHANNELS 3 Zrotation Yrotation Xrotation
		JOINT Spine
		{
			OFFSET -0.087000 1.940000 -0.288900
			CHANNELS 3 Zrotation Yrotation Xrotation
			JOINT Spine1
			{
				OFFSET 0.000000 1.950000 0.060000
				CHANNELS 3 Zrotation Yrotation Xrotation
				JOINT Neck
				{
					OFFSET 0.000000 0.000000 0.000000
					CHANNELS 3 Zrotation Yrotation Xrotation
					JOINT Neck1
					{
						OFFSET 0.000000 1.600000 0.340000
						CHANNELS 3 Zrotation Yrotation Xrotation
						JOINT Head
						{
							OFFSET 0.000000 1.667000 -0.240000
							CHANNELS 3 Zrotation Yrotation Xrotation
							End Site
							{
								OFFSET 0.000000 0.000000 0.000000
							}
						}
					}
				}
				JOINT LeftShoulder
				{
					OFFSET 0.000000 0.000000 0.000000
					CHANNELS 3 Zrotation Yrotation Xrotation
					JOINT LeftArm
					{
						OFFSET 2.700000 1.550000 -0.730000
						CHANNELS 3 Zrotation Yrotation Xrotation
						JOINT LeftForeArm
						{
							OFFSET 5.450000 0.000000 0.000000
							CHANNELS 3 Zrotation Yrotation Xrotation
							JOINT LeftHand
							{
								OFFSET 3.450000 0.000000 0.000000
								CHANNELS 3 Zrotation Yrotation Xrotation
								JOINT LeftHandIndex1
								{
									OFFSET 0.750000 0.000000 0.000000
									CHANNELS 3 Zrotation Yrotation Xrotation
									End Site
									{
										OFFSET 0.000000 0.000000 0.000000
									}
								}
							}
						}
					}
				}
				JOINT RightShoulder
				{
					OFFSET 0.000000 0.000000 0.000000
					CHANNELS 3 Zrotation Yrotation Xrotation
					JOINT RightArm
					{
						OFFSET -2.700000 1.550000 -0.730000
						CHANNELS 3 Zrotation Yrotation Xrotation
						JOINT RightForeArm
						{
							OFFSET -5.450000 0.000000 0.000000
							CHANNELS 3 Zrotation Yrotation Xrotation
							JOINT RightHand
							{
								OFFSET -3.450000 0.000000 0.000000
								CHANNELS 3 Zrotation Yrotation Xrotation
								JOINT RightHandIndex1
								{
									OFFSET -0.750000 0.000000 0.000000
									CHANNELS 3 Zrotation Yrotation Xrotation
									End Site
									{
										OFFSET 0.000000 0.000000 0.000000
									}
								}
							}
						}
					}
				}
			}
		}
	}
}
MOTION
Frames: 12
Frame Time: 0.016667
-2.327800 17.251310 -2.692360 4.814575 -5.464033 6.980201 -16.077844 9.897155 7.007582 28.206031 -1.014622 -40.153317 -82.538563 31.454276 16.172979 1.639277 12.843045 0.519606 0.595600 0.402400 0.458170 18.091068 -8.249435 1.458231 -11.173572 0.898708 -9.068293 7.318179 -3.482737 0.832141 -0.239634 -3.679684 3.133984 0.491950 0.613240 0.296480 -2.186624 -2.561349 -8.481416 -16.756753 7.058636 8.386445 11.968403 2.316625 9.783315 0.113708 2.850002 -12.799183 5.091866 3.306787 17.699649 -3.724170 7.695080 -8.510060 4.734123 -12.720357 1.898704 6.726700 -9.231089 -2.586419 136.019505 -61.736993 -118.829156 -3.961215 3.638998 0.238830 0.526640 -0.246670 0.266150 -4.558588 14.082689 11.295539 5.517860 3.947648 0.112016 -13.082499 13.958803 -1.771357 1.898505 -1.693957 -0.339510 0.396790 -0.023570 -0.205490 
-2.278820 17.230620 -2.683960 4.443212 -5.694809 8.451347 -16.059764 9.779203 7.002839 29.801330 0.089004 -38.671797 -80.280902 29.773220 14.837447 1.549857 12.598113 0.563202 0.639950 0.465070 0.467180 18.127879 -8.249750 1.505548 -11.081668 1.150614 -10.343519 7.440222 -3.274869 0.292497 -0.223075 -3.614304 3.146509 0.533100 0.609750 0.303060 -2.281743 -2.262367 -8.465445 -15.778979 6.885555 7.413527 11.842129 2.282291 8.451821 0.550244 2.785846 -12.387489 5.128205 3.529798 16.441733 -3.646240 7.469720 -8.353210 4.323661 -9.699853 2.483122 6.518266 -3.992043 -1.389263 131.621178 -61.182269 -111.120358 -4.011194 3.549642 0.205750 0.535360 -0.250630 0.286120 -4.972619 11.160966 10.031732 3.755238 3.403190 0.264527 -12.748309 14.610703 -1.746193 1.891862 -1.746616 -0.317250 0.383120 -0.051600 -0.190490 
-2.214150 17.219380 -2.682810 3.912851 -5.808898 8.734933 -16.023050 9.863536 6.807153 29.547987 0.092017 -35.566779 -74.655503 27.093608 14.279772 1.450065 12.219997 0.627725 0.642080 0.484560 0.451430 18.122793 -8.354941 1.608261 -11.001095 1.180835 -10.494790 7.712647 -3.232539 -0.089630 -0.231188 -3.615999 3.151033 0.518010 0.577440 0.297240 -2.317208 -2.076194 -8.432384 -14.225215 6.809613 7.686408 11.438041 2.482243 7.740126 1.067466 2.645848 -12.607077 4.982847 3.620931 16.180284 -3.346330 7.180240 -8.619910 4.762157 -7.683504 3.373804 5.159759 0.090898 -0.337009 122.690646 -61.978202 -99.580287 -4.021939 3.260814 0.194590 0.507570 -0.235540 0.285330 -6.390275 9.395977 9.555821 3.161944 3.270056 0.276124 -12.351794 12.621778 -1.620562 1.971124 -1.739150 -0.281690 0.351800 -0.066040 -0.172060 
-2.147920 17.195910 -2.681650 3.657074 -5.148297 9.162399 -15.968910 9.975692 6.589520 29.110832 -0.112874 -33.458760 -68.178551 25.433614 14.890185 1.248285 12.033119 0.657930 0.651790 0.485740 0.452880 18.132441 -8.506208 1.684400 -11.016726 1.269756 -10.960870 7.647911 -3.183249 0.005358 -0.212399 -3.614268 3.148158 0.558690 0.632890 0.293050 -2.384484 -1.858298 -8.356703 -12.790196 6.615551 7.719471 10.504219 2.745158 6.847609 1.533155 2.632080 -12.446212 5.127952 3.236737 15.223350 -3.234490 6.169250 -8.507340 5.314203 -5.516295 3.352062 5.402764 2.283245 1.041622 115.503124 -63.175321 -90.502521 -4.072435 2.790496 0.188820 0.538310 -0.265270 0.300380 -7.860968 7.446676 9.129527 3.600474 3.538617 0.356404 -12.191513 9.511195 -1.622100 2.009513 -1.730614 -0.321510 0.413390 -0.051000 -0.171200 
-2.076010 17.179330 -2.680980 3.576925 -4.139493 9.525869 -15.919611 10.123787 6.359070 28.485262 -0.560126 -31.863955 -61.662989 24.088993 16.015991 1.034861 11.860582 0.668754 0.590620 0.397420 0.396750 18.128731 -8.654368 1.779850 -11.205239 1.342787 -11.263012 7.541482 -3.155608 -0.153033 -0.165420 -3.644842 3.143923 0.542070 0.697210 0.296860 -2.421473 -1.700486 -8.312036 -11.450727 6.275681 8.061481 9.240780 2.833341 5.716336 2.131923 2.842191 -12.513068 5.633505 2.529240 14.615599 -3.217090 5.075010 -7.801880 5.634712 -4.166550 3.213915 5.773066 4.481079 1.821613 108.675610 -64.351288 -81.094756 -4.067884 2.151029 0.181790 0.581960 -0.328560 0.277140 -9.435205 6.112504 9.130782 5.293179 3.425008 0.094926 -12.869563 6.404927 -1.577697 2.048455 -1.715798 -0.366140 0.441120 0.024550 -0.181290 
-1.999130 17.162800 -2.671820 3.353959 -3.353057 9.503497 -15.859181 10.441732 5.989511 26.796929 -1.149752 -29.857323 -53.497780 22.137406 17.278884 0.831348 11.414300 0.767664 0.565210 0.369660 0.346130 18.103303 -8.890444 1.894773 -10.975169 1.328128 -11.242639 6.912633 -3.086090 -0.080052 -0.133160 -3.669936 3.141692 0.528090 0.734540 0.323810 -2.436081 -1.634167 -8.225083 -9.875681 5.750626 8.651237 8.083681 2.913558 4.196627 2.842622 2.767255 -12.324108 5.606642 1.904256 14.423139 -3.297460 4.174600 -6.527500 5.846160 -2.651901 2.688263 4.897441 5.463288 2.074400 103.528722 -65.038610 -72.643244 -3.975090 1.725320 0.127210 0.617290 -0.367460 0.283200 -11.050104 4.946905 9.039398 6.083741 3.591504 0.037556 -12.575672 4.768138 -1.540731 2.097995 -1.748114 -0.346580 0.411580 0.046090 -0.154100 
-1.902360 17.151860 -2.659230 2.847588 -2.415127 8.860388 -15.732821 11.097140 5.342119 22.590824 -2.053992 -26.625570 -43.358784 19.005351 18.243672 0.678295 10.313756 1.093328 0.537570 0.361600 0.263890 18.052199 -9.368503 2.109493 -9.933121 1.150103 -10.872502 5.212523 -2.924826 0.298554 -0.126285 -3.591093 3.188165 0.442260 0.711760 0.360320 -2.487315 -1.614895 -8.151268 -6.793356 4.721929 10.569368 5.646255 3.272595 0.852725 3.348340 2.422904 -11.917163 5.010957 0.885661 15.572514 -1.911090 2.451750 -5.179260 7.319771 -0.663860 1.740878 2.421188 4.157154 1.700088 95.713436 -66.925216 -61.498108 -3.677517 1.500085 0.047760 0.574470 -0.344560 0.313940 -13.430952 3.437332 8.713268 8.221999 3.633415 -0.410312 -12.730311 6.715568 -1.543407 2.179306 -1.812008 -0.225570 0.309300 0.017060 -0.058520 
-1.786070 17.125720 -2.614780 1.696300 -0.908566 9.877484 -15.608299 11.600636 4.789286 19.601998 -2.305013 -24.698823 -35.052577 15.594531 17.038705 0.318949 9.014576 1.500603 0.511850 0.347070 0.184440 18.043370 -9.717221 2.336648 -8.901060 1.332265 -11.962856 5.422228 -2.885781 0.916677 -0.046573 -3.566104 3.208293 0.445070 0.758250 0.367840 -2.626200 -1.554573 -8.050317 -2.621566 3.332017 10.207908 3.166115 2.927347 -3.060928 4.237125 2.145286 -10.955781 4.574913 0.428567 15.397304 -2.004610 1.370160 -2.732220 7.772508 1.899213 0.121337 0.645965 4.058940 1.323475 82.464296 -70.061307 -48.476121 -3.651041 1.898509 -0.046970 0.624370 -0.421080 0.329940 -15.594948 1.145031 7.723073 10.835583 4.411381 -0.923549 -14.594554 9.170522 -1.833217 2.151116 -1.992972 -0.207580 0.260390 0.029770 -0.019430 
-1.668820 17.076090 -2.578070 1.243659 0.439292 11.148887 -15.492956 11.870814 4.160779 16.668701 -2.480238 -22.719580 -28.423563 12.389940 14.675978 -0.154983 7.768839 1.926358 0.560850 0.372510 0.228450 18.106483 -9.972731 2.400740 -9.714616 1.583307 -13.657827 6.150758 -3.070639 2.143107 0.005232 -3.658941 3.125363 0.535550 0.812990 0.416260 -2.878796 -1.339396 -7.530556 -0.428926 3.031554 5.435997 3.021868 1.996165 0.948558 4.445596 2.286472 -10.197555 5.057140 0.315794 13.059302 -3.917940 1.416700 -2.431800 4.097935 0.831194 -0.203500 3.196428 7.372958 0.465278 68.955111 -67.331684 -37.390412 -4.009637 2.685511 -0.094810 0.724250 -0.494780 0.324080 -12.268647 0.956608 7.657806 6.300297 2.014197 -0.440642 -15.937653 8.428404 -2.115580 2.076776 -2.121428 -0.244330 0.258090 0.050980 -0.057180 
-1.543760 17.049910 -2.553450 0.347122 1.490513 11.193586 -15.349203 12.280606 3.656716 13.411242 -2.433117 -20.133958 -22.255944 9.799158 12.728091 -0.460525 6.561895 2.422023 0.538090 0.317890 0.215220 18.145543 -10.365039 2.559781 -9.381704 1.665415 -14.503025 6.313983 -3.243787 3.554398 0.056130 -3.669611 3.129977 0.539030 0.876230 0.406540 -3.146922 -1.094889 -7.384769 4.160658 1.971729 4.998061 0.372928 1.578976 0.110273 4.969191 1.524740 -9.955023 3.926415 0.344008 12.793166 -4.430930 0.958860 -1.233690 3.215328 2.070064 -0.409620 2.605975 6.867479 1.161100 50.939665 -60.733067 -22.840755 -4.292063 3.361508 -0.111850 0.766400 -0.556370 0.337520 -12.573994 0.191519 7.368505 5.840220 2.699677 -0.215056 -16.201445 7.449335 -2.137839 2.085291 -2.159360 -0.295100 0.285960 0.065000 -0.063200 
-1.412500 17.051530 -2.530180 -0.673211 2.204719 11.301245 -15.267848 12.753967 3.435175 10.204143 -2.285812 -18.127728 -17.701135 7.950010 10.850805 -0.574055 5.607159 2.836000 0.490750 0.276020 0.173020 18.124159 -10.647784 2.670159 -7.979735 1.862766 -16.021508 5.947867 -3.379692 6.196106 0.138399 -3.517855 3.196575 0.512410 0.917370 0.389630 -3.247672 -1.232239 -7.460217 8.698490 0.971924 6.295412 -1.995443 1.502536 -4.085218 5.972152 0.317447 -9.728924 2.013662 0.077801 13.231288 -4.843960 0.480920 0.539340 3.597967 5.415692 -1.231291 -0.951470 3.210621 2.277623 43.702039 -54.433112 -15.857880 -4.441990 3.591553 -0.172060 0.789700 -0.595390 0.349890 -15.194605 -1.201885 6.930758 7.550347 4.393650 -0.168744 -15.833483 8.203606 -2.131119 2.115406 -2.212294 -0.297520 0.284990 0.062460 -0.030350 
-1.267450 17.059710 -2.552610 -1.936173 3.379866 9.525694 -15.117852 13.005629 3.295397 9.060901 -1.886627 -15.174276 -15.103267 7.085261 9.964974 -0.593786 5.133069 3.003571 0.542070 0.283910 0.277040 18.204765 -10.910231 2.685284 -7.986416 1.840703 -16.709013 7.343590 -4.362419 10.402104 0.047185 -3.556118 3.158200 0.445090 0.748760 0.369960 -3.615951 -1.131985 -7.497978 14.579496 -0.178477 7.724729 -5.035145 1.232584 -3.314606 6.018396 0.038938 -9.867298 1.463475 -0.511911 14.867322 -4.868860 0.418880 -2.003640 -0.689330 2.970527 -1.246823 2.825626 4.256775 1.822187 37.516382 -46.738313 -10.726024 -4.284408 3.564923 -0.006830 0.632300 -0.458420 0.337410 -11.599605 0.782213 7.884402 3.617075 2.441208 -0.017689 -15.933761 4.467102 -1.606484 2.263330 -2.045367 -0.267190 0.243510 -0.005260 -0.076630 
